<svg xmlns="http://www.w3.org/2000/svg" xmlns:xlink="http://www.w3.org/1999/xlink" version="1.1" x="0px" y="0px" viewBox="0 0 100 125" style="enable-background:new 0 0 100 100;" xml:space="preserve"><style type="text/css">
	.st0{fill:none;}
	.st1{fill:#FA5A1F;}
	.st2{fill:none;stroke:#000000;stroke-width:0;stroke-linecap:round;stroke-linejoin:round;}
</style><g><polygon class="st0" points="24.1,22.3 22.5,30.6 29.8,23.1 24.8,22.4  "/><polygon class="st0" points="35.7,46.1 39.7,38.5 31,42.3  "/><path class="st0" d="M57.4,10.1c4.2,0,7.7,3.5,7.7,7.7c0,4.3-3.5,7.7-7.7,7.7c-4.3,0-7.7-3.4-7.7-7.7   C49.7,13.6,53.1,10.1,57.4,10.1z M45.6,87.2c0,0,0,0,0-0.1c0.1-0.5,0.7-2.2,1.7-4.8c1.4-3.5,4.4-9.1,8.2-14.3L38.7,54.4l5.5,6.5   L30.6,86.1c-0.8,1.5-2.4,2.4-4,2.4c-0.7,0-1.5-0.2-2.1-0.5c-2.2-1.2-3-3.9-1.8-6.1l10.8-19.8L21.8,48.4L21,64.6L15.2,86   c-0.5,2-2.4,3.3-4.4,3.3c-0.4,0-0.8-0.1-1.2-0.2c-2.4-0.6-3.8-3.1-3.2-5.5l5.5-20.2l-0.4-20.8l5.5-6l-8.8-7.2   c-1-0.8-1.1-2.2-0.3-3.2c0.8-1,2.2-1.1,3.2-0.3l4.5,3.7l3.1-15.6H42l11.1,16l-11,21.2l16.3,13.3c1.3-1.5,2.8-3,4.4-4.4   c5.5-4.9,14.2,0.9,14.2,0.9l4.4,3.3l11.2,8.4l0.6,0.4L78.4,87.4L45.6,87.2z"/><path d="M57.4,25.5c4.2,0,7.7-3.4,7.7-7.7c0-4.3-3.5-7.7-7.7-7.7c-4.3,0-7.7,3.5-7.7,7.7C49.7,22.1,53.1,25.5,57.4,25.5z"/><rect x="19.1" y="26.5" transform="matrix(0.1996 -0.9799 0.9799 0.1996 -7.2773 44.0146)" class="st1" width="8.4" height="0"/><polygon class="st1" points="29.8,23.1 29.8,23.1 24.8,22.4  "/><path d="M93.2,73.1l-0.6-0.4l-11.2-8.4L77.1,61c0,0-8.7-5.7-14.2-0.9c-1.6,1.4-3.1,2.9-4.4,4.4L42.1,51.3l11-21.2L42,14.1H18.7   l-3.1,15.6L11.1,26c-1-0.8-2.4-0.6-3.2,0.3c-0.8,1-0.6,2.4,0.3,3.2l8.8,7.2l-5.5,6l0.4,20.8L6.5,83.7c-0.6,2.4,0.8,4.9,3.2,5.5   c0.4,0.1,0.8,0.2,1.2,0.2c2,0,3.8-1.3,4.4-3.3L21,64.6l0.9-16.2l11.5,13.6L22.6,81.8c-1.2,2.2-0.4,4.9,1.8,6.1   c0.7,0.4,1.4,0.5,2.1,0.5c1.6,0,3.2-0.9,4-2.4l13.7-25.2l-5.5-6.5L55.5,68c-3.8,5.1-6.7,10.8-8.2,14.3c-1.1,2.6-1.6,4.3-1.7,4.8   c0,0.1,0,0.1,0,0.1l32.8,0.1L93.2,73.1z M29.8,23.1l-7.3,7.5l0,0l1.7-8.3h0l0.7,0.1L29.8,23.1L29.8,23.1z M35.7,46.1L31,42.3   l8.7-3.8L35.7,46.1z"/><line class="st2" x1="24.8" y1="22.4" x2="24.1" y2="22.3"/></g><text x="0" y="115" fill="#000000" font-size="5px" font-weight="bold" font-family="'Helvetica Neue', Helvetica, Arial-Unicode, Arial, Sans-serif">Created by Evan Shuster</text><text x="0" y="120" fill="#000000" font-size="5px" font-weight="bold" font-family="'Helvetica Neue', Helvetica, Arial-Unicode, Arial, Sans-serif">from the Noun Project</text></svg>